PathFileType  4	(X/Y/Z) C:\Users\antoi\Documents\MyRepositories\mobilecap\ResultsAnalysis
DataRate	CameraRate	NumFrames	NumMarkers	Units	OrigDataRate	OrigDataStartFrame	OrigNumFrames
100.0	100.0	4	51	mm	100.0	37	146
Frame#	Time	r_knee			r_shank_antsup			r_ankle			r_calc			r_5meta			r_toe			L_knee			L_shank_antsup			L_ankle			L_calc			L_5meta			L_toe			r_sh2			r_sh3			r_sh4			L_sh2			L_sh3			r_thigh1			r_thigh2			r_thigh3			r_thigh4			r_thigh5			L_thigh1			L_thigh2			L_thigh3			L_thigh4			r.ASIS			r.PSIS			L.ASIS			L.PSIS			C7			R_Shoulder			L_Shoulder			R_Sternum			L_Sternum			R_humerus			R_elbow_med			R_elbow_lat			R_forearm			R_wrist_radius			R_wrist_ulna			L_humerus			L_elbow_med			L_elbow_lat			L_forearm			L_wrist_radius			L_wrist_ulna			R_HJC			L_HJC			R_HJC_reg			L_HJC_reg			
		X1	Y1	Z1	X2	Y2	Z2	X3	Y3	Z3	X4	Y4	Z4	X5	Y5	Z5	X6	Y6	Z6	X7	Y7	Z7	X8	Y8	Z8	X9	Y9	Z9	X10	Y10	Z10	X11	Y11	Z11	X12	Y12	Z12	X13	Y13	Z13	X14	Y14	Z14	X15	Y15	Z15	X16	Y16	Z16	X17	Y17	Z17	X18	Y18	Z18	X19	Y19	Z19	X20	Y20	Z20	X21	Y21	Z21	X22	Y22	Z22	X23	Y23	Z23	X24	Y24	Z24	X25	Y25	Z25	X26	Y26	Z26	X27	Y27	Z27	X28	Y28	Z28	X29	Y29	Z29	X30	Y30	Z30	X31	Y31	Z31	X32	Y32	Z32	X33	Y33	Z33	X34	Y34	Z34	X35	Y35	Z35	X36	Y36	Z36	X37	Y37	Z37	X38	Y38	Z38	X39	Y39	Z39	X40	Y40	Z40	X41	Y41	Z41	X42	Y42	Z42	X43	Y43	Z43	X44	Y44	Z44	X45	Y45	Z45	X46	Y46	Z46	X47	Y47	Z47	X48	Y48	Z48	X49	Y49	Z49	X50	Y50	Z50	X51	Y51	Z51	

37	0.36000000	204.80310	533.82881	-75.43609	223.71248	449.87187	-73.04673	131.82223	98.62518	-112.72758	67.84424	56.26786	-154.50837	277.29440	35.23737	-86.62666	307.01421	61.85214	-148.09234	431.62328	576.14912	-365.95149	420.56933	458.66596	-374.16192	235.91415	188.31218	-325.27149	159.39362	166.26264	-276.68760	352.07542	72.21851	-373.33547	387.66422	93.71733	-312.98897	211.82430	337.38594	-74.01323	151.75950	457.53947	-45.64710	129.44963	344.12759	-54.82933	342.34746	504.50957	-381.18139	291.24517	395.32874	-370.12446	292.68113	849.04172	-26.24403	301.24642	740.37571	-50.28996	245.58331	708.87109	-23.44373	181.16202	837.33231	-20.96886	190.88365	722.75146	-33.79270	360.38244	894.60281	-377.46257	435.74064	777.43243	-382.07925	263.50849	830.95397	-381.09584	344.17852	716.77046	-390.63113	318.34428	1050.65445	-67.70771	126.50534	1097.36809	-148.93990	321.08145	1039.48247	-326.22593	126.05484	1088.82147	-253.48750	163.63100	1601.87269	-250.64781	205.52064	1587.44747	-81.90935	221.86791	1571.87822	-391.51846	318.57076	1535.50705	-203.72276	323.39495	1528.20239	-260.06019	158.40913	1335.75891	39.81539	130.09112	1235.46648	-26.26641	131.34205	1251.24599	55.90240	209.01782	1114.29469	98.95713	261.00303	1012.50747	111.14196	215.74220	1008.46240	120.50537	200.43686	1317.73864	-484.79767	149.82852	1222.68607	-426.52442	176.50817	1229.19595	-493.91045	267.91541	1078.49467	-501.72693	324.80585	997.38012	-487.32331	289.92394	980.38268	-498.95775	229.85890	976.12006	-71.80041	234.21784	965.26742	-301.87205	240.78620	983.02692	-98.55050	240.05255	969.11169	-268.77054	
38	0.37000000	210.12958	533.21962	-75.11674	228.17675	448.98768	-72.86283	132.08588	98.80020	-112.87516	67.78528	56.51515	-154.51768	277.31010	35.16651	-86.59697	307.09216	61.68965	-148.06492	446.10191	576.30262	-364.70543	440.90081	457.71991	-373.59825	272.19393	176.93127	-325.78105	196.88118	150.14937	-277.52677	395.13154	68.27863	-373.76801	429.12181	91.64664	-313.21110	215.01193	336.68741	-74.21913	156.30373	457.47275	-45.38317	132.72337	344.30897	-54.64086	360.73679	499.16421	-381.18532	315.41579	387.32584	-370.13007	301.59656	847.70465	-25.60223	308.97354	739.04885	-49.87074	252.83763	708.07298	-23.25511	189.87498	837.06730	-20.54071	198.44787	722.40304	-33.47765	372.05667	894.71397	-376.65634	448.22008	777.85175	-380.83749	275.68703	830.35203	-380.46944	357.07343	716.70670	-389.40421	329.19425	1049.29639	-66.85908	137.62992	1096.77907	-148.48040	332.22278	1038.63908	-325.51951	137.19173	1088.17481	-253.02551	176.51520	1600.78268	-251.97094	218.54438	1587.63194	-83.25447	234.50553	1569.15133	-393.01746	331.31311	1534.21748	-204.78494	335.79109	1526.42962	-261.06257	170.61412	1337.18179	40.69192	141.79452	1236.20106	-24.38956	143.36252	1252.71776	57.70234	221.78970	1116.46767	101.35018	274.34659	1015.07836	114.02364	229.14253	1010.90646	123.64279	208.47656	1314.29878	-483.55767	156.97255	1221.00532	-423.78742	182.77944	1226.25126	-491.45673	268.71625	1072.55975	-499.85558	322.62475	989.57469	-485.88140	286.86216	973.50588	-497.06475	240.49196	975.04456	-71.31751	245.18221	964.54238	-301.39866	251.45263	982.29884	-97.73118	250.73870	968.28337	-268.02523	
39	0.38000000	215.64608	532.56208	-74.81545	232.79545	448.07290	-72.65166	132.41701	98.98726	-113.01307	67.74447	56.80393	-154.51985	277.33917	35.07851	-86.58104	307.17041	61.50783	-147.99345	459.94841	576.00827	-363.40816	460.75171	456.66396	-373.24378	309.19911	166.11253	-326.59819	235.31901	134.90148	-278.58986	438.22747	64.86531	-374.39684	470.65470	89.99935	-313.65494	218.29766	335.96276	-74.31472	161.00051	457.38616	-45.12392	136.11825	344.49496	-54.45972	378.90206	493.42679	-380.97467	339.65545	379.33449	-370.05090	310.65943	846.28879	-24.99811	316.82554	737.64600	-49.49715	260.25964	707.20029	-23.12192	198.73802	836.69561	-20.10306	206.19988	721.96421	-33.17644	383.48197	894.49275	-375.75460	460.16454	777.78692	-379.54467	287.43684	829.45492	-379.79352	369.35411	716.26725	-388.12732	340.06204	1047.83290	-66.03671	148.84161	1096.06956	-147.97509	343.35816	1037.63882	-324.84039	148.39154	1087.43420	-252.51011	189.51398	1599.49913	-253.36145	231.68948	1587.68984	-84.72657	247.22123	1566.27982	-394.64720	344.10855	1532.79448	-205.97361	348.24386	1524.53609	-262.20592	182.83035	1338.55377	41.48018	153.45453	1236.89997	-22.57071	155.37483	1254.16993	59.43948	234.53138	1118.59324	103.66434	287.68281	1017.62804	116.80912	242.53387	1013.34384	126.72265	216.54670	1310.82663	-482.38498	164.35290	1219.33169	-421.10731	189.12889	1223.32810	-489.04303	269.47062	1066.84154	-498.00437	320.30711	982.08142	-484.46233	283.65576	966.99440	-495.17093	251.17918	973.86204	-70.81648	256.14123	963.68639	-300.90643	262.16660	981.40746	-96.93429	261.43294	967.33335	-267.30821	
40	0.39000000	221.33212	531.85809	-74.54671	237.53068	447.13323	-72.44996	132.80862	99.19367	-113.14902	67.74373	57.11229	-154.52024	277.37640	34.97865	-86.58181	307.25254	61.30056	-147.90855	473.12081	575.26440	-362.05605	480.02458	455.61301	-373.00040	346.84499	156.04049	-327.71335	274.54513	120.82527	-279.85779	481.23109	61.92599	-375.21731	512.21000	88.75673	-314.34071	221.65498	335.21818	-74.32145	165.81665	457.27898	-44.88639	139.61051	344.68995	-54.30087	396.53809	487.41788	-380.33922	363.84533	371.47296	-369.81921	319.88986	844.77375	-24.44640	324.83312	736.14827	-49.18283	267.89439	706.22769	-23.03073	207.76989	836.21528	-19.64847	214.14883	721.43260	-32.89521	394.74806	893.93223	-374.70313	471.59572	777.20478	-378.21134	298.79842	828.27568	-379.11589	381.03488	715.43510	-386.81350	350.98049	1046.26868	-65.24596	160.14050	1095.22546	-147.41560	354.52549	1036.50074	-324.18506	159.66189	1086.57444	-251.93182	202.59288	1598.05455	-254.86317	244.95827	1587.63279	-86.34179	260.01916	1563.27925	-396.40499	356.93124	1531.25037	-207.28591	360.78048	1522.53013	-263.49379	195.06889	1339.88842	42.16156	165.09797	1237.57326	-20.83211	167.37524	1255.62615	61.08477	247.25224	1120.69702	105.88240	300.99556	1020.16764	119.49276	255.92052	1015.77445	129.72055	224.65312	1307.34390	-481.28602	171.96387	1217.68907	-418.50492	195.55450	1220.45309	-486.67078	270.19457	1061.37423	-496.17808	317.86922	974.92834	-483.09789	280.34675	960.91607	-493.25648	261.95964	972.56495	-70.29670	267.13319	962.70159	-300.39543	272.95984	980.36969	-96.16233	272.17924	966.26100	-266.61425	
